# xmcd
#
# Track frame offsets:
#	150
#	22319
#	51914
#	81688
#	99578
#	120065
#	146004
#	166714
#	189383
#	211810
#
# Disc length: 3134 seconds
#
# Revision: 0
# Processed by: cddbd v1.5.2PL0 Copyright (c) Steve Scherf et al.
# Submitted via: FairStars CD Ripper 1.90
#
DISCID=850c3c0a
DTITLE=Huong Lan - Nhu la co tich
DYEAR=1998
DGENRE=Country
TTITLE0=Huong Lan and Quoc Tuan - Di cay
TTITLE1=My Huyen - May nhip cau tre
TTITLE2=Phi Nhung - Ngau hung ly ru con
TTITLE3=Nhu la co tich
TTITLE4=Huong Lan and Quoc Tuan - Co tham vui xuan
TTITLE5=Huong Lan and Quoc Tuan - Anh Sau ve que
TTITLE6=Phi Nhung - Hinh bong que nha
TTITLE7=My Huyen - Nhu mot con me
TTITLE8=Huong Lan and Tuan Vu - Lam dau su la
TTITLE9=Huong Lan and Quoc Tuan - Suong trang mien que ngoai
EXTD=
EXTT0=
EXTT1=
EXTT2=
EXTT3=
EXTT4=
EXTT5=
EXTT6=
EXTT7=
EXTT8=
EXTT9=
PLAYORDER=
